{"accessors" : [{"bufferView" : 0, "byteOffset" : 0, "componentType" : 5123, "count" : 19968, "type" : "SCALAR", "max" : [19967], "min" : [0]}, {"bufferView" : 1, "byteOffset" : 0, "componentType" : 5126, "count" : 19968, "type" : "VEC3", "max" : [164.26271057128906, 74.34746551513672, 235.72259521484375], "min" : [-65.29640197753906, -155.21212768554688, 6.0097198486328125], "name" : "POSITION"}, {"bufferView" : 1, "byteOffset" : 12, "componentType" : 5126, "count" : 19968, "type" : "VEC3", "max" : [0.9998769760131836, 0.999836266040802, 0.9997049570083618], "min" : [-0.9998708963394165, -0.999544084072113, -0.999999463558197], "name" : "NORMAL"}, {"bufferView" : 1, "byteOffset" : 24, "componentType" : 5126, "count" : 19968, "type" : "VEC2", "max" : [2.710972785949707, -0.22341755032539368], "min" : [0.39268040657043457, -2.7700846195220947], "name" : "TEXCOORD_0"}, {"bufferView" : 0, "byteOffset" : 39936, "componentType" : 5123, "count" : 15360, "type" : "SCALAR", "max" : [15359], "min" : [0]}, {"bufferView" : 2, "byteOffset" : 0, "componentType" : 5126, "count" : 15360, "type" : "VEC3", "max" : [163.52969360351562, 73.61400604248047, 234.9873504638672], "min" : [-64.56298828125, -154.4787139892578, 6.744968891143799], "name" : "POSITION"}, {"bufferView" : 2, "byteOffset" : 12, "componentType" : 5126, "count" : 15360, "type" : "VEC3", "max" : [0.999687135219574, 0.9998354315757751, 0.9996883273124695], "min" : [-0.9984774589538574, -0.9983497262001038, -0.9997546672821045], "name" : "NORMAL"}, {"bufferView" : 2, "byteOffset" : 24, "componentType" : 5126, "count" : 15360, "type" : "VEC2", "max" : [1.7278218269348145, -0.2808085083961487], "min" : [0.2806698679924011, -1.7328740358352661], "name" : "TEXCOORD_0"}], "asset" : {"generator" : "Aspose.3D 23.7.0", "version" : "2.0"}, "buffers" : [{"uri" : "data:application/octet-stream;base64,", "byteLength" : 1201164}], "bufferViews" : [{"buffer" : 0, "byteOffset" : 0, "byteLength" : 70656, "target" : 34963}, {"buffer" : 0, "byteOffset" : 70660, "byteLength" : 638976, "byteStride" : 32, "target" : 34962}, {"buffer" : 0, "byteOffset" : 709640, "byteLength" : 491520, "byteStride" : 32, "target" : 34962}], "images" : [{"uri" : "F:\\Tennis Ball-1\\Map\\Fur.jpg"}, {"uri" : "F:\\Tennis Ball-1\\Map\\Seam.jpg"}], "materials" : [{"name" : "Green", "pbrMetallicRoughness" : {"baseColorFactor" : [0.3686274588108063, 0.6235294342041016, 0, 1], "baseColorTexture" : {"index" : 0, "texCoord" : 0}, "metallicFactor" : 0, "roughnessFactor" : 0}, "emissiveFactor" : [0, 0, 0], "alphaMode" : "OPAQUE", "doubleSided" : false}, {"name" : "Seam", "pbrMetallicRoughness" : {"baseColorFactor" : [0.5882353186607361, 0.5882353186607361, 0.5882353186607361, 1], "baseColorTexture" : {"index" : 1, "texCoord" : 0}, "metallicFactor" : 0, "roughnessFactor" : 0}, "emissiveFactor" : [0, 0, 0], "alphaMode" : "OPAQUE", "doubleSided" : false}], "meshes" : [{"primitives" : [{"attributes" : {"POSITION" : 1, "NORMAL" : 2, "TEXCOORD_0" : 3}, "indices" : 0, "material" : 0, "mode" : 4}], "name" : ""}, {"primitives" : [{"attributes" : {"POSITION" : 5, "NORMAL" : 6, "TEXCOORD_0" : 7}, "indices" : 4, "material" : 1, "mode" : 4}], "name" : ""}], "nodes" : [{"matrix" : [1, 0, 0, 0, 0, 2.83276944882399E-16, -1, 0, 0, 1, 2.83276944882399E-16, 0, -51.22706985473633, -6.946335315704346, -40.5817756652832, 1], "mesh" : 0, "name" : "Null_Subdivision_Surface_1"}, {"matrix" : [1, 0, 0, 0, 0, 2.83276944882399E-16, -1, 0, 0, 1, 2.83276944882399E-16, 0, -51.22706985473633, -6.946335315704346, -40.5817756652832, 1], "mesh" : 1, "name" : "Null_Subdivision_Surface_1_Subdivision_Surface_11_Subdivision_Surface_12"}], "samplers" : [{"magFilter" : 9729, "minFilter" : 9729, "wrapS" : 10497, "wrapT" : 10497}, {"magFilter" : 9729, "minFilter" : 9729, "wrapS" : 10497, "wrapT" : 10497}], "scene" : 0, "scenes" : [{"nodes" : [0, 1]}], "textures" : [{"sampler" : 0, "source" : 0, "name" : "Map #7"}, {"sampler" : 1, "source" : 1, "name" : "Map #9"}]}