{
	"asset":{
		"generator":"Khronos glTF Blender I/O v3.6.27",
		"version":"2.0"
	},
	"scene":0,
	"scenes":[
		{
			"name":"Scene",
			"nodes":[
				20
			]
		}
	],
	"nodes":[
		{
			"mesh":0,
			"name":"Court_01 - Default_0"
		},
		{
			"mesh":1,
			"name":"Court_08 - Default_0"
		},
		{
			"children":[
				0,
				1
			],
			"name":"Court",
			"rotation":[
				-0.7071066498756409,
				0,
				0,
				0.70710688829422
			],
			"translation":[
				0,
				-6.622518062591553,
				6.622514247894287
			]
		},
		{
			"mesh":2,
			"name":"Net_02 - Default_0"
		},
		{
			"mesh":3,
			"name":"Net_03 - Default_0"
		},
		{
			"mesh":4,
			"name":"Net_07 - Default_0"
		},
		{
			"children":[
				3,
				4,
				5
			],
			"name":"Net",
			"rotation":[
				-0.70710688829422,
				0,
				0,
				0.7071066498756409
			],
			"scale":[
				0.07763322442770004,
				1,
				0.8464508652687073
			],
			"translation":[
				0.18086016178131104,
				-34.99916076660156,
				6.86077880859375
			]
		},
		{
			"mesh":5,
			"name":"Tennis Ball_09 - Default_0",
			"translation":[
				0.00048828125,
				9.1552734375e-05,
				9.1552734375e-05
			]
		},
		{
			"children":[
				7
			],
			"name":"Tennis Ball",
			"rotation":[
				0.3420201539993286,
				0,
				0,
				0.9396926164627075
			],
			"scale":[
				0.03530412167310715,
				0.0341750793159008,
				0.03530412167310715
			],
			"translation":[
				-206.88687133789062,
				58.70612716674805,
				15.17569351196289
			]
		},
		{
			"mesh":6,
			"name":"Tennis Racketzz_02 - Default_0",
			"translation":[
				5.7679797464516014e-05,
				0,
				0.00046246411511674523
			]
		},
		{
			"mesh":7,
			"name":"Tennis Racketzz_03 - Default_0",
			"translation":[
				5.7679797464516014e-05,
				0,
				0.00046246411511674523
			]
		},
		{
			"mesh":8,
			"name":"Tennis Racketzz_07 - Default_0",
			"translation":[
				5.7679797464516014e-05,
				0,
				0.00046246411511674523
			]
		},
		{
			"children":[
				9,
				10,
				11
			],
			"name":"Tennis Racketzz",
			"rotation":[
				0,
				-0.7071068286895752,
				0,
				0.7071067094802856
			],
			"scale":[
				0.03442167118191719,
				0.047589708119630814,
				0.022324535995721817
			],
			"translation":[
				-218.05450439453125,
				66.7239990234375,
				19.292877197265625
			]
		},
		{
			"mesh":9,
			"name":"Tennis Racketzz001_02 - Default_0",
			"translation":[
				-3.556311276042834e-05,
				-2.7672429496305995e-05,
				-0.00012979056918993592
			]
		},
		{
			"mesh":10,
			"name":"Tennis Racketzz001_03 - Default_0",
			"translation":[
				-3.556311276042834e-05,
				-2.7672429496305995e-05,
				-0.00012979056918993592
			]
		},
		{
			"mesh":11,
			"name":"Tennis Racketzz001_07 - Default_0",
			"translation":[
				-3.556311276042834e-05,
				-2.7672429496305995e-05,
				-0.00012979056918993592
			]
		},
		{
			"children":[
				13,
				14,
				15
			],
			"name":"Tennis Racketzz001",
			"rotation":[
				0,
				-0.7071068286895752,
				0,
				0.7071067094802856
			],
			"scale":[
				0.03442167118191719,
				0.047589708119630814,
				0.022324535995721817
			],
			"translation":[
				228.02508544921875,
				66.7239990234375,
				-44.56219482421875
			]
		},
		{
			"children":[
				2,
				6,
				8,
				12,
				16
			],
			"name":"RootNode"
		},
		{
			"children":[
				17
			],
			"name":"Object_2"
		},
		{
			"children":[
				18
			],
			"name":"Tennis Court.FBX",
			"rotation":[
				0.70710688829422,
				0,
				0,
				0.7071066498756409
			]
		},
		{
			"children":[
				19
			],
			"name":"Sketchfab_model",
			"rotation":[
				-0.70710688829422,
				0,
				0,
				0.7071066498756409
			]
		}
	],
	"animations":[
		{
			"channels":[
				{
					"sampler":0,
					"target":{
						"node":8,
						"path":"translation"
					}
				},
				{
					"sampler":1,
					"target":{
						"node":8,
						"path":"rotation"
					}
				},
				{
					"sampler":2,
					"target":{
						"node":12,
						"path":"translation"
					}
				},
				{
					"sampler":3,
					"target":{
						"node":12,
						"path":"rotation"
					}
				},
				{
					"sampler":4,
					"target":{
						"node":16,
						"path":"translation"
					}
				},
				{
					"sampler":5,
					"target":{
						"node":16,
						"path":"rotation"
					}
				}
			],
			"name":"Take 001",
			"samplers":[
				{
					"input":45,
					"interpolation":"LINEAR",
					"output":46
				},
				{
					"input":45,
					"interpolation":"LINEAR",
					"output":47
				},
				{
					"input":48,
					"interpolation":"LINEAR",
					"output":49
				},
				{
					"input":48,
					"interpolation":"LINEAR",
					"output":50
				},
				{
					"input":45,
					"interpolation":"LINEAR",
					"output":51
				},
				{
					"input":45,
					"interpolation":"LINEAR",
					"output":52
				}
			]
		}
	],
	"materials":[
		{
			"doubleSided":true,
			"name":"01_-_Default",
			"normalTexture":{
				"index":0
			},
			"pbrMetallicRoughness":{
				"baseColorTexture":{
					"index":1
				},
				"metallicFactor":0.14805640280246735,
				"roughnessFactor":0.23608994483947754
			}
		},
		{
			"doubleSided":true,
			"name":"08_-_Default",
			"pbrMetallicRoughness":{
				"baseColorTexture":{
					"index":2
				},
				"roughnessFactor":0.8929713368415833
			}
		},
		{
			"doubleSided":true,
			"name":"02_-_Default",
			"pbrMetallicRoughness":{
				"baseColorFactor":[
					0,
					0,
					0,
					1
				],
				"roughnessFactor":0.8929713368415833
			}
		},
		{
			"doubleSided":true,
			"name":"03_-_Default",
			"pbrMetallicRoughness":{
				"baseColorFactor":[
					0.9725490212440491,
					0.9725490212440491,
					0.9725490212440491,
					1
				],
				"roughnessFactor":0.8929713368415833
			}
		},
		{
			"doubleSided":true,
			"name":"07_-_Default",
			"pbrMetallicRoughness":{
				"baseColorFactor":[
					0,
					0.1529410034418106,
					0,
					1
				],
				"roughnessFactor":0.5226752758026123
			}
		},
		{
			"doubleSided":true,
			"name":"09_-_Default",
			"normalTexture":{
				"index":3
			},
			"pbrMetallicRoughness":{
				"baseColorTexture":{
					"index":4
				},
				"roughnessFactor":0.8397485017776489
			}
		},
		{
			"doubleSided":true,
			"name":"02_-_Default_0",
			"pbrMetallicRoughness":{
				"baseColorFactor":[
					0,
					0.35294100642204285,
					1,
					1
				],
				"metallicFactor":0,
				"roughnessFactor":0.8929713368415833
			}
		},
		{
			"doubleSided":true,
			"name":"03_-_Default_0",
			"pbrMetallicRoughness":{
				"baseColorFactor":[
					0,
					0,
					0,
					1
				],
				"metallicFactor":0,
				"roughnessFactor":0.8929713368415833
			}
		},
		{
			"doubleSided":true,
			"name":"07_-_Default_0",
			"pbrMetallicRoughness":{
				"metallicFactor":0,
				"roughnessFactor":0.8929713368415833
			}
		}
	],
	"meshes":[
		{
			"name":"Court_01 - Default_0",
			"primitives":[
				{
					"attributes":{
						"POSITION":0,
						"NORMAL":1,
						"TEXCOORD_0":2
					},
					"indices":3,
					"material":0
				}
			]
		},
		{
			"name":"Court_08 - Default_0",
			"primitives":[
				{
					"attributes":{
						"POSITION":4,
						"NORMAL":5,
						"TEXCOORD_0":6
					},
					"indices":7,
					"material":1
				}
			]
		},
		{
			"name":"Net_02 - Default_0",
			"primitives":[
				{
					"attributes":{
						"POSITION":8,
						"NORMAL":9,
						"TEXCOORD_0":10
					},
					"indices":11,
					"material":2
				}
			]
		},
		{
			"name":"Net_03 - Default_0",
			"primitives":[
				{
					"attributes":{
						"POSITION":12,
						"NORMAL":13,
						"TEXCOORD_0":14
					},
					"indices":15,
					"material":3
				}
			]
		},
		{
			"name":"Net_07 - Default_0",
			"primitives":[
				{
					"attributes":{
						"POSITION":16,
						"NORMAL":17,
						"TEXCOORD_0":18
					},
					"indices":19,
					"material":4
				}
			]
		},
		{
			"name":"Tennis Ball_09 - Default_0",
			"primitives":[
				{
					"attributes":{
						"POSITION":20,
						"NORMAL":21,
						"TEXCOORD_0":22
					},
					"indices":23,
					"material":5
				}
			]
		},
		{
			"name":"Tennis Racketzz_02 - Default_0",
			"primitives":[
				{
					"attributes":{
						"POSITION":24,
						"NORMAL":25,
						"TEXCOORD_0":26
					},
					"indices":27,
					"material":6
				}
			]
		},
		{
			"name":"Tennis Racketzz_03 - Default_0",
			"primitives":[
				{
					"attributes":{
						"POSITION":28,
						"NORMAL":29,
						"TEXCOORD_0":30
					},
					"indices":31,
					"material":7
				}
			]
		},
		{
			"name":"Tennis Racketzz_07 - Default_0",
			"primitives":[
				{
					"attributes":{
						"POSITION":32,
						"NORMAL":33,
						"TEXCOORD_0":34
					},
					"indices":35,
					"material":8
				}
			]
		},
		{
			"name":"Tennis Racketzz001_02 - Default_0",
			"primitives":[
				{
					"attributes":{
						"POSITION":36,
						"NORMAL":37,
						"TEXCOORD_0":38
					},
					"indices":27,
					"material":6
				}
			]
		},
		{
			"name":"Tennis Racketzz001_03 - Default_0",
			"primitives":[
				{
					"attributes":{
						"POSITION":39,
						"NORMAL":40,
						"TEXCOORD_0":41
					},
					"indices":31,
					"material":7
				}
			]
		},
		{
			"name":"Tennis Racketzz001_07 - Default_0",
			"primitives":[
				{
					"attributes":{
						"POSITION":42,
						"NORMAL":43,
						"TEXCOORD_0":44
					},
					"indices":35,
					"material":8
				}
			]
		}
	],
	"textures":[
		{
			"sampler":0,
			"source":0
		},
		{
			"sampler":0,
			"source":1
		},
		{
			"sampler":0,
			"source":2
		},
		{
			"sampler":0,
			"source":3
		},
		{
			"sampler":0,
			"source":4
		}
	],
	"images":[
		{
			"bufferView":4,
			"mimeType":"image/png",
			"name":"01_-_Default_normal"
		},
		{
			"bufferView":5,
			"mimeType":"image/png",
			"name":"01_-_Default_baseColor"
		},
		{
			"bufferView":10,
			"mimeType":"image/png",
			"name":"08_-_Default_baseColor"
		},
		{
			"bufferView":27,
			"mimeType":"image/png",
			"name":"09_-_Default_normal"
		},
		{
			"bufferView":28,
			"mimeType":"image/jpeg",
			"name":"09_-_Default_baseColor"
		}
	],
	"accessors":[
		{
			"bufferView":0,
			"componentType":5126,
			"count":4,
			"max":[
				285,
				140,
				13.245033264160156
			],
			"min":[
				-285,
				-140,
				13.245033264160156
			],
			"type":"VEC3"
		},
		{
			"bufferView":1,
			"componentType":5126,
			"count":4,
			"type":"VEC3"
		},
		{
			"bufferView":2,
			"componentType":5126,
			"count":4,
			"type":"VEC2"
		},
		{
			"bufferView":3,
			"componentType":5123,
			"count":6,
			"type":"SCALAR"
		},
		{
			"bufferView":6,
			"componentType":5126,
			"count":20,
			"max":[
				285,
				140,
				13.245033264160156
			],
			"min":[
				-285,
				-140,
				0
			],
			"type":"VEC3"
		},
		{
			"bufferView":7,
			"componentType":5126,
			"count":20,
			"type":"VEC3"
		},
		{
			"bufferView":8,
			"componentType":5126,
			"count":20,
			"type":"VEC2"
		},
		{
			"bufferView":9,
			"componentType":5123,
			"count":30,
			"type":"SCALAR"
		},
		{
			"bufferView":11,
			"componentType":5126,
			"count":4392,
			"max":[
				26.1429500579834,
				127.36282348632812,
				81.89897155761719
			],
			"min":[
				-32.1910514831543,
				-120.09999084472656,
				48.90143966674805
			],
			"type":"VEC3"
		},
		{
			"bufferView":12,
			"componentType":5126,
			"count":4392,
			"type":"VEC3"
		},
		{
			"bufferView":13,
			"componentType":5126,
			"count":4392,
			"type":"VEC2"
		},
		{
			"bufferView":14,
			"componentType":5123,
			"count":5466,
			"type":"SCALAR"
		},
		{
			"bufferView":15,
			"componentType":5126,
			"count":68,
			"max":[
				4.7206878662109375e-05,
				120.23825073242188,
				84.99998474121094
			],
			"min":[
				-4.999953269958496,
				-119.76170349121094,
				52.473690032958984
			],
			"type":"VEC3"
		},
		{
			"bufferView":16,
			"componentType":5126,
			"count":68,
			"type":"VEC3"
		},
		{
			"bufferView":17,
			"componentType":5126,
			"count":68,
			"type":"VEC2"
		},
		{
			"bufferView":18,
			"componentType":5123,
			"count":138,
			"type":"SCALAR"
		},
		{
			"bufferView":19,
			"componentType":5126,
			"count":160,
			"max":[
				20.208873748779297,
				123.34337615966797,
				87.5723876953125
			],
			"min":[
				-25.208782196044922,
				-122.86688995361328,
				42.4999885559082
			],
			"type":"VEC3"
		},
		{
			"bufferView":20,
			"componentType":5126,
			"count":160,
			"type":"VEC3"
		},
		{
			"bufferView":21,
			"componentType":5126,
			"count":160,
			"type":"VEC2"
		},
		{
			"bufferView":22,
			"componentType":5123,
			"count":756,
			"type":"SCALAR"
		},
		{
			"bufferView":23,
			"componentType":5126,
			"count":559,
			"max":[
				58.1341438293457,
				58.1341438293457,
				58.1341438293457
			],
			"min":[
				-58.1341438293457,
				-58.1341438293457,
				-58.1341438293457
			],
			"type":"VEC3"
		},
		{
			"bufferView":24,
			"componentType":5126,
			"count":559,
			"type":"VEC3"
		},
		{
			"bufferView":25,
			"componentType":5126,
			"count":559,
			"type":"VEC2"
		},
		{
			"bufferView":26,
			"componentType":5123,
			"count":2880,
			"type":"SCALAR"
		},
		{
			"bufferView":29,
			"componentType":5126,
			"count":1641,
			"max":[
				132.58607482910156,
				137.0883026123047,
				35.89765930175781
			],
			"min":[
				-132.58607482910156,
				-222.47314453125,
				2.962718963623047
			],
			"type":"VEC3"
		},
		{
			"bufferView":30,
			"componentType":5126,
			"count":1641,
			"type":"VEC3"
		},
		{
			"bufferView":31,
			"componentType":5126,
			"count":1641,
			"type":"VEC2"
		},
		{
			"bufferView":32,
			"componentType":5123,
			"count":7152,
			"type":"SCALAR"
		},
		{
			"bufferView":33,
			"componentType":5126,
			"count":15216,
			"max":[
				139.58154296875,
				141.17620849609375,
				38.820499420166016
			],
			"min":[
				-139.58154296875,
				-358.5449523925781,
				0.039898019284009933
			],
			"type":"VEC3"
		},
		{
			"bufferView":34,
			"componentType":5126,
			"count":15216,
			"type":"VEC3"
		},
		{
			"bufferView":35,
			"componentType":5126,
			"count":15216,
			"type":"VEC2"
		},
		{
			"bufferView":36,
			"componentType":5123,
			"count":38460,
			"type":"SCALAR"
		},
		{
			"bufferView":37,
			"componentType":5126,
			"count":2401,
			"max":[
				119.4042739868164,
				123.81526184082031,
				21.54917335510254
			],
			"min":[
				-119.4042739868164,
				-125.71515655517578,
				17.311052322387695
			],
			"type":"VEC3"
		},
		{
			"bufferView":38,
			"componentType":5126,
			"count":2401,
			"type":"VEC3"
		},
		{
			"bufferView":39,
			"componentType":5126,
			"count":2401,
			"type":"VEC2"
		},
		{
			"bufferView":40,
			"componentType":5123,
			"count":8424,
			"type":"SCALAR"
		},
		{
			"bufferView":41,
			"componentType":5126,
			"count":1641,
			"max":[
				132.58607482910156,
				137.0883026123047,
				35.89765930175781
			],
			"min":[
				-132.58607482910156,
				-222.47314453125,
				2.962718963623047
			],
			"type":"VEC3"
		},
		{
			"bufferView":42,
			"componentType":5126,
			"count":1641,
			"type":"VEC3"
		},
		{
			"bufferView":43,
			"componentType":5126,
			"count":1641,
			"type":"VEC2"
		},
		{
			"bufferView":44,
			"componentType":5126,
			"count":15216,
			"max":[
				139.58154296875,
				141.17620849609375,
				38.820499420166016
			],
			"min":[
				-139.58154296875,
				-358.5449523925781,
				0.039898019284009933
			],
			"type":"VEC3"
		},
		{
			"bufferView":45,
			"componentType":5126,
			"count":15216,
			"type":"VEC3"
		},
		{
			"bufferView":46,
			"componentType":5126,
			"count":15216,
			"type":"VEC2"
		},
		{
			"bufferView":47,
			"componentType":5126,
			"count":2401,
			"max":[
				119.4042739868164,
				123.81526184082031,
				21.54917335510254
			],
			"min":[
				-119.4042739868164,
				-125.71515655517578,
				17.311052322387695
			],
			"type":"VEC3"
		},
		{
			"bufferView":48,
			"componentType":5126,
			"count":2401,
			"type":"VEC3"
		},
		{
			"bufferView":49,
			"componentType":5126,
			"count":2401,
			"type":"VEC2"
		},
		{
			"bufferView":50,
			"componentType":5126,
			"count":81,
			"max":[
				3.3333333333333335
			],
			"min":[
				0
			],
			"type":"SCALAR"
		},
		{
			"bufferView":51,
			"componentType":5126,
			"count":81,
			"type":"VEC3"
		},
		{
			"bufferView":52,
			"componentType":5126,
			"count":81,
			"type":"VEC4"
		},
		{
			"bufferView":53,
			"componentType":5126,
			"count":69,
			"max":[
				2.8333333333333335
			],
			"min":[
				0
			],
			"type":"SCALAR"
		},
		{
			"bufferView":54,
			"componentType":5126,
			"count":69,
			"type":"VEC3"
		},
		{
			"bufferView":55,
			"componentType":5126,
			"count":69,
			"type":"VEC4"
		},
		{
			"bufferView":56,
			"componentType":5126,
			"count":81,
			"type":"VEC3"
		},
		{
			"bufferView":57,
			"componentType":5126,
			"count":81,
			"type":"VEC4"
		}
	],
	"bufferViews":[
		{
			"buffer":0,
			"byteLength":48,
			"byteOffset":0,
			"target":34962
		},
		{
			"buffer":0,
			"byteLength":48,
			"byteOffset":48,
			"target":34962
		},
		{
			"buffer":0,
			"byteLength":32,
			"byteOffset":96,
			"target":34962
		},
		{
			"buffer":0,
			"byteLength":12,
			"byteOffset":128,
			"target":34963
		},
		{
			"buffer":0,
			"byteLength":24244,
			"byteOffset":140
		},
		{
			"buffer":0,
			"byteLength":25825,
			"byteOffset":24384
		},
		{
			"buffer":0,
			"byteLength":240,
			"byteOffset":50212,
			"target":34962
		},
		{
			"buffer":0,
			"byteLength":240,
			"byteOffset":50452,
			"target":34962
		},
		{
			"buffer":0,
			"byteLength":160,
			"byteOffset":50692,
			"target":34962
		},
		{
			"buffer":0,
			"byteLength":60,
			"byteOffset":50852,
			"target":34963
		},
		{
			"buffer":0,
			"byteLength":111,
			"byteOffset":50912
		},
		{
			"buffer":0,
			"byteLength":52704,
			"byteOffset":51024,
			"target":34962
		},
		{
			"buffer":0,
			"byteLength":52704,
			"byteOffset":103728,
			"target":34962
		},
		{
			"buffer":0,
			"byteLength":35136,
			"byteOffset":156432,
			"target":34962
		},
		{
			"buffer":0,
			"byteLength":10932,
			"byteOffset":191568,
			"target":34963
		},
		{
			"buffer":0,
			"byteLength":816,
			"byteOffset":202500,
			"target":34962
		},
		{
			"buffer":0,
			"byteLength":816,
			"byteOffset":203316,
			"target":34962
		},
		{
			"buffer":0,
			"byteLength":544,
			"byteOffset":204132,
			"target":34962
		},
		{
			"buffer":0,
			"byteLength":276,
			"byteOffset":204676,
			"target":34963
		},
		{
			"buffer":0,
			"byteLength":1920,
			"byteOffset":204952,
			"target":34962
		},
		{
			"buffer":0,
			"byteLength":1920,
			"byteOffset":206872,
			"target":34962
		},
		{
			"buffer":0,
			"byteLength":1280,
			"byteOffset":208792,
			"target":34962
		},
		{
			"buffer":0,
			"byteLength":1512,
			"byteOffset":210072,
			"target":34963
		},
		{
			"buffer":0,
			"byteLength":6708,
			"byteOffset":211584,
			"target":34962
		},
		{
			"buffer":0,
			"byteLength":6708,
			"byteOffset":218292,
			"target":34962
		},
		{
			"buffer":0,
			"byteLength":4472,
			"byteOffset":225000,
			"target":34962
		},
		{
			"buffer":0,
			"byteLength":5760,
			"byteOffset":229472,
			"target":34963
		},
		{
			"buffer":0,
			"byteLength":44859,
			"byteOffset":235232
		},
		{
			"buffer":0,
			"byteLength":11504,
			"byteOffset":280092
		},
		{
			"buffer":0,
			"byteLength":19692,
			"byteOffset":291596,
			"target":34962
		},
		{
			"buffer":0,
			"byteLength":19692,
			"byteOffset":311288,
			"target":34962
		},
		{
			"buffer":0,
			"byteLength":13128,
			"byteOffset":330980,
			"target":34962
		},
		{
			"buffer":0,
			"byteLength":14304,
			"byteOffset":344108,
			"target":34963
		},
		{
			"buffer":0,
			"byteLength":182592,
			"byteOffset":358412,
			"target":34962
		},
		{
			"buffer":0,
			"byteLength":182592,
			"byteOffset":541004,
			"target":34962
		},
		{
			"buffer":0,
			"byteLength":121728,
			"byteOffset":723596,
			"target":34962
		},
		{
			"buffer":0,
			"byteLength":76920,
			"byteOffset":845324,
			"target":34963
		},
		{
			"buffer":0,
			"byteLength":28812,
			"byteOffset":922244,
			"target":34962
		},
		{
			"buffer":0,
			"byteLength":28812,
			"byteOffset":951056,
			"target":34962
		},
		{
			"buffer":0,
			"byteLength":19208,
			"byteOffset":979868,
			"target":34962
		},
		{
			"buffer":0,
			"byteLength":16848,
			"byteOffset":999076,
			"target":34963
		},
		{
			"buffer":0,
			"byteLength":19692,
			"byteOffset":1015924,
			"target":34962
		},
		{
			"buffer":0,
			"byteLength":19692,
			"byteOffset":1035616,
			"target":34962
		},
		{
			"buffer":0,
			"byteLength":13128,
			"byteOffset":1055308,
			"target":34962
		},
		{
			"buffer":0,
			"byteLength":182592,
			"byteOffset":1068436,
			"target":34962
		},
		{
			"buffer":0,
			"byteLength":182592,
			"byteOffset":1251028,
			"target":34962
		},
		{
			"buffer":0,
			"byteLength":121728,
			"byteOffset":1433620,
			"target":34962
		},
		{
			"buffer":0,
			"byteLength":28812,
			"byteOffset":1555348,
			"target":34962
		},
		{
			"buffer":0,
			"byteLength":28812,
			"byteOffset":1584160,
			"target":34962
		},
		{
			"buffer":0,
			"byteLength":19208,
			"byteOffset":1612972,
			"target":34962
		},
		{
			"buffer":0,
			"byteLength":324,
			"byteOffset":1632180
		},
		{
			"buffer":0,
			"byteLength":972,
			"byteOffset":1632504
		},
		{
			"buffer":0,
			"byteLength":1296,
			"byteOffset":1633476
		},
		{
			"buffer":0,
			"byteLength":276,
			"byteOffset":1634772
		},
		{
			"buffer":0,
			"byteLength":828,
			"byteOffset":1635048
		},
		{
			"buffer":0,
			"byteLength":1104,
			"byteOffset":1635876
		},
		{
			"buffer":0,
			"byteLength":972,
			"byteOffset":1636980
		},
		{
			"buffer":0,
			"byteLength":1296,
			"byteOffset":1637952
		}
	],
	"samplers":[
		{
			"magFilter":9729,
			"minFilter":9987
		}
	],
	"buffers":[
		{
			"byteLength":1639248,
			"uri":"data:application/octet-stream;base64,"
		}
	]
}
